<svg width="24" height="24" viewBox="0 0 24 24" fill="none" xmlns="http://www.w3.org/2000/svg">
    <path fill-rule="evenodd" clip-rule="evenodd" d="M17.0001 16.292L20.8541 20.146C21.0496 20.3415 21.0496 20.6585 20.8541 20.854C20.6586 21.0495 20.3416 21.0495 20.1461 20.854L16.2921 16.999C13.0518 19.8574 8.12718 19.6263 5.16884 16.477C2.21049 13.3276 2.28756 8.39819 5.34291 5.34285C8.39825 2.2875 13.3277 2.21043 16.477 5.16877C19.6264 8.12712 19.8575 13.0517 16.9991 16.292H17.0001ZM11.0001 18C13.5009 18 15.8118 16.6658 17.0622 14.5C18.3127 12.3342 18.3127 9.66581 17.0622 7.5C15.8118 5.33419 13.5009 4 11.0001 4C7.13407 4 4.00006 7.13401 4.00006 11C4.00006 14.866 7.13407 18 11.0001 18Z" fill="#007AFF"/>
</svg>
