<svg width="24" height="24" viewBox="0 0 24 24" fill="none" xmlns="http://www.w3.org/2000/svg">
    <path fill-rule="evenodd" clip-rule="evenodd" d="M5.56701 15.562C5.70703 15.6787 5.77245 15.8623 5.73777 16.0412C5.70308 16.2202 5.57377 16.3661 5.4003 16.422C5.22682 16.4779 5.03666 16.435 4.90401 16.31C3.63243 15.1812 2.64852 13.7654 2.03401 12.18C1.98931 12.0642 1.98931 11.9358 2.03401 11.82C4.09001 6.51199 9.94301 3.75599 15.327 5.52399C15.586 5.61264 15.7255 5.89301 15.6401 6.15305C15.5547 6.4131 15.2761 6.55614 15.015 6.47399C10.197 4.89299 4.96501 7.30999 3.03801 12C3.59909 13.3645 4.46443 14.5828 5.56801 15.562H5.56701ZM12.62 8.04799C12.8901 8.09336 13.0734 8.34752 13.0312 8.61809C12.989 8.88865 12.7371 9.07496 12.466 9.03599C11.5194 8.88724 10.5586 9.19967 9.88055 9.87676C9.20247 10.5539 8.88864 11.5141 9.03601 12.461C9.06316 12.6378 8.99391 12.8157 8.85433 12.9277C8.71475 13.0396 8.52606 13.0686 8.35933 13.0037C8.1926 12.9388 8.07316 12.7898 8.04601 12.613C7.85015 11.3508 8.26881 10.0711 9.17275 9.1687C10.0767 8.26634 11.3572 7.84992 12.619 8.04799H12.62ZM11.456 15.963C11.192 15.9159 11.0121 15.6689 11.0484 15.4032C11.0846 15.1375 11.324 14.9477 11.591 14.973C12.513 15.1002 13.4418 14.7922 14.1052 14.1394C14.7685 13.4866 15.0914 12.5629 14.979 11.639C14.9499 11.458 15.0221 11.2756 15.1673 11.1636C15.3124 11.0517 15.5072 11.0281 15.6748 11.1022C15.8425 11.1764 15.9561 11.3363 15.971 11.519C16.1199 12.7502 15.6893 13.9809 14.8052 14.8507C13.9212 15.7204 12.6837 16.1309 11.455 15.962L11.456 15.963ZM3.85401 20.853C3.65878 21.0485 3.34202 21.0487 3.14651 20.8535C2.951 20.6583 2.95078 20.3415 3.14601 20.146L20.146 3.14599C20.3415 2.95048 20.6585 2.95048 20.854 3.14599C21.0495 3.3415 21.0495 3.65848 20.854 3.85399L3.85401 20.854V20.853ZM18.433 8.43899C18.2363 8.25368 18.2225 7.94565 18.4017 7.74343C18.581 7.54122 18.8884 7.51799 19.096 7.69099C20.3676 8.81975 21.3515 10.2356 21.966 11.821C22.0107 11.9368 22.0107 12.0652 21.966 12.181C19.909 17.488 14.057 20.244 8.67301 18.476C8.5012 18.4219 8.37173 18.2796 8.33411 18.1035C8.29648 17.9273 8.35651 17.7446 8.49125 17.625C8.62598 17.5055 8.8146 17.4677 8.98501 17.526C13.803 19.108 19.035 16.692 20.962 12.001C20.4009 10.6365 19.5356 9.41817 18.432 8.43899H18.433Z" fill="#C5CEE0"/>
</svg>
