<svg width="24" height="24" viewBox="0 0 24 24" fill="none" xmlns="http://www.w3.org/2000/svg">
    <path fill-rule="evenodd" clip-rule="evenodd" d="M2.034 11.82C4.168 6.31497 10.36 3.58297 15.864 5.71697C18.6651 6.80315 20.8798 9.01789 21.966 11.819C22.0112 11.9354 22.0112 12.0645 21.966 12.181C19.832 17.685 13.64 20.417 8.136 18.283C5.33492 17.1968 3.12019 14.9821 2.034 12.181C1.98879 12.0645 1.98879 11.9354 2.034 11.819V11.82ZM8.497 17.35C13.426 19.261 18.963 16.868 20.962 12C19.952 9.54378 17.9782 7.60974 15.502 6.64997C10.575 4.73897 5.038 7.13197 3.039 12C4.04897 14.4562 6.02276 16.3902 8.499 17.35H8.497ZM12 16C9.79086 16 8 14.2091 8 12C8 9.79083 9.79086 7.99997 12 7.99997C14.2091 7.99997 16 9.79083 16 12C16 14.2091 14.2091 16 12 16ZM12 15C13.6569 15 15 13.6568 15 12C15 10.3431 13.6569 8.99997 12 8.99997C10.3431 8.99997 9 10.3431 9 12C9 13.6568 10.3431 15 12 15Z" fill="#C5CEE0"/>
</svg>
